# Blender v2.78 (sub 0) OBJ File: 'textpool.blend'
# www.blender.org
mtllib testpool.mtl
o Cube.003_Cube.005
v 7.065135 -0.114596 6.557374
v 7.065135 0.285404 6.557374
v 7.065135 -0.114593 -7.242626
v 7.065135 0.285407 -7.242626
v -7.134864 -0.114594 6.557374
v -7.134864 0.285406 6.557374
v -7.134864 -0.114590 -7.242626
v -7.134864 0.285410 -7.242626
vt -3.1249 -0.4910
vt -0.3615 2.2723
vt -3.1249 2.2723
vt -0.0092 -0.4910
vt 2.7542 2.2723
vt -0.0092 2.2723
vt 5.8699 -0.8434
vt 3.1066 -3.6067
vt 5.8699 -3.6067
vt -0.3615 5.3880
vt -3.1249 2.6247
vt -0.3615 2.6247
vt -0.0092 -0.8434
vt 2.7542 -3.6067
vt 2.7542 -0.8434
vt -3.1249 -0.8434
vt -0.3615 -3.6067
vt -0.3615 -0.8434
vt -0.3615 -0.4910
vt 2.7542 -0.4910
vt 3.1066 -0.8434
vt -3.1249 5.3880
vt -0.0092 -3.6067
vt -3.1249 -3.6067
vn 1.0000 0.0000 0.0000
vn -0.0000 0.0000 -1.0000
vn -1.0000 0.0000 0.0000
vn -0.0000 0.0000 1.0000
vn 0.0000 -1.0000 0.0000
vn -0.0000 1.0000 -0.0000
usemtl Material.002
s off
f 2/1/1 3/2/1 1/3/1
f 4/4/2 7/5/2 3/6/2
f 8/7/3 5/8/3 7/9/3
f 6/10/4 1/11/4 5/12/4
f 7/13/5 1/14/5 3/15/5
f 4/16/6 6/17/6 8/18/6
f 2/1/1 4/19/1 3/2/1
f 4/4/2 8/20/2 7/5/2
f 8/7/3 6/21/3 5/8/3
f 6/10/4 2/22/4 1/11/4
f 7/13/5 5/23/5 1/14/5
f 4/16/6 2/24/6 6/17/6
o Cube.001_Cube.004
v -2.527772 0.306134 -0.804987
v -1.380619 0.306134 0.833317
v -3.018924 0.306134 1.980470
v -4.166076 0.306134 0.342165
v -2.527771 2.306134 -0.804987
v -1.380619 2.306134 0.833318
v -3.018924 2.306134 1.980470
v -4.166076 2.306134 0.342166
vt 0.0066 0.9936
vt 0.9923 0.0079
vt 0.9923 0.9936
vt 0.9924 0.9921
vt 0.0067 0.0064
vt 0.9924 0.0064
vt 0.9931 0.9936
vt 0.0074 0.0078
vt 0.9931 0.0078
vt 0.9932 0.9929
vt 0.0075 0.0072
vt 0.9932 0.0072
vt 0.0076 0.0074
vt 0.9933 0.9931
vt 0.0076 0.9931
vt 0.9929 0.9929
vt 0.0072 0.0072
vt 0.9929 0.0072
vt 0.0066 0.0079
vt 0.0067 0.9921
vt 0.0074 0.9936
vt 0.0075 0.9929
vt 0.9933 0.0074
vt 0.0072 0.9929
vn 0.0000 -1.0000 0.0000
vn 0.0000 1.0000 0.0000
vn 0.8192 -0.0000 -0.5736
vn 0.5736 -0.0000 0.8192
vn -0.8192 0.0000 0.5736
vn -0.5736 0.0000 -0.8192
usemtl Material
s off
f 10/25/7 12/26/7 9/27/7
f 13/28/8 15/29/8 14/30/8
f 13/31/9 10/32/9 9/33/9
f 14/34/10 11/35/10 10/36/10
f 15/37/11 12/38/11 11/39/11
f 9/40/12 16/41/12 13/42/12
f 10/25/7 11/43/7 12/26/7
f 13/28/8 16/44/8 15/29/8
f 13/31/9 14/45/9 10/32/9
f 14/34/10 15/46/10 11/35/10
f 15/37/11 16/47/11 12/38/11
f 9/40/12 12/48/12 16/41/12
o Cube_Cube.003
v 2.278359 0.490974 -1.461923
v 2.278359 3.490974 -1.461923
v 2.473450 0.490974 -1.442708
v 2.473450 3.490974 -1.442708
v 2.661043 0.490974 -1.385802
v 2.661043 3.490974 -1.385802
v 2.833930 0.490974 -1.293392
v 2.833930 3.490974 -1.293392
v 2.985466 0.490974 -1.169029
v 2.985466 3.490974 -1.169029
v 3.109829 0.490974 -1.017493
v 3.109829 3.490974 -1.017493
v 3.202239 0.490974 -0.844606
v 3.202239 3.490974 -0.844606
v 3.259145 0.490974 -0.657013
v 3.259145 3.490974 -0.657013
v 3.278359 0.490974 -0.461923
v 3.278359 3.490974 -0.461923
v 3.259145 0.490974 -0.266833
v 3.259145 3.490974 -0.266833
v 3.202239 0.490974 -0.079239
v 3.202239 3.490974 -0.079239
v 3.109829 0.490974 0.093647
v 3.109829 3.490974 0.093647
v 2.985466 0.490974 0.245184
v 2.985466 3.490974 0.245184
v 2.833930 0.490974 0.369547
v 2.833930 3.490974 0.369547
v 2.661043 0.490974 0.461957
v 2.661043 3.490974 0.461957
v 2.473450 0.490974 0.518863
v 2.473450 3.490974 0.518863
v 2.278359 0.490974 0.538077
v 2.278359 3.490974 0.538077
v 2.083269 0.490974 0.518862
v 2.083269 3.490974 0.518862
v 1.895676 0.490974 0.461957
v 1.895676 3.490974 0.461957
v 1.722789 0.490974 0.369547
v 1.722789 3.490974 0.369547
v 1.571252 0.490974 0.245184
v 1.571252 3.490974 0.245184
v 1.446889 0.490974 0.093647
v 1.446889 3.490974 0.093647
v 1.354480 0.490974 -0.079240
v 1.354480 3.490974 -0.079240
v 1.297574 0.490974 -0.266833
v 1.297574 3.490974 -0.266833
v 1.278359 0.490974 -0.461924
v 1.278359 3.490974 -0.461924
v 1.297574 0.490974 -0.657014
v 1.297574 3.490974 -0.657014
v 1.354480 0.490974 -0.844607
v 1.354480 3.490974 -0.844607
v 1.446890 0.490974 -1.017494
v 1.446890 3.490974 -1.017494
v 1.571254 0.490974 -1.169030
v 1.571254 3.490974 -1.169030
v 1.722790 0.490974 -1.293393
v 1.722790 3.490974 -1.293393
v 1.895677 0.490974 -1.385803
v 1.895677 3.490974 -1.385803
v 2.083271 0.490974 -1.442708
v 2.083271 3.490974 -1.442708
vt 0.3120 0.9055
vt 0.2848 0.4278
vt 0.3120 0.4278
vt 0.2848 0.9055
vt 0.2575 0.4278
vt 0.2575 0.9055
vt 0.2302 0.4278
vt 0.2302 0.9055
vt 0.2030 0.4278
vt 0.2030 0.9055
vt 0.1757 0.4278
vt 0.1757 0.9055
vt 0.1485 0.4278
vt 0.1485 0.9055
vt 0.1212 0.4278
vt 0.1212 0.9055
vt 0.0939 0.4278
vt 0.0939 0.9055
vt 0.0667 0.4278
vt 0.9390 0.9055
vt 0.9117 0.4278
vt 0.9390 0.4278
vt 0.9117 0.9055
vt 0.8844 0.4278
vt 0.8844 0.9055
vt 0.8572 0.4278
vt 0.8572 0.9055
vt 0.8299 0.4278
vt 0.8299 0.9055
vt 0.8027 0.4278
vt 0.8027 0.9055
vt 0.7754 0.4278
vt 0.7754 0.9055
vt 0.7481 0.4278
vt 0.7481 0.9055
vt 0.7209 0.4278
vt 0.7209 0.9055
vt 0.6936 0.4278
vt 0.6936 0.9055
vt 0.6664 0.4278
vt 0.6664 0.9055
vt 0.6391 0.4278
vt 0.6391 0.9055
vt 0.6119 0.4278
vt 0.6119 0.9055
vt 0.5846 0.4278
vt 0.5846 0.9055
vt 0.5573 0.4278
vt 0.5573 0.9055
vt 0.5301 0.4278
vt 0.5301 0.9055
vt 0.5028 0.4278
vt 0.5028 0.9055
vt 0.4756 0.4278
vt 0.4756 0.9055
vt 0.4483 0.4278
vt 0.4483 0.9055
vt 0.4210 0.4278
vt 0.4210 0.9055
vt 0.3938 0.4278
vt 0.3938 0.9055
vt 0.3665 0.4278
vt 0.6856 0.3319
vt 0.5371 0.1509
vt 0.8666 0.1834
vt 0.3665 0.9055
vt 0.3393 0.4278
vt 0.3393 0.9055
vt 0.3774 0.0217
vt 0.4579 0.1198
vt 0.3474 0.3266
vt 0.0667 0.9055
vt 0.7180 0.0024
vt 0.7499 0.0087
vt 0.7799 0.0211
vt 0.8068 0.0392
vt 0.8298 0.0621
vt 0.8478 0.0891
vt 0.8602 0.1191
vt 0.8666 0.1509
vt 0.8602 0.2152
vt 0.8478 0.2452
vt 0.8298 0.2721
vt 0.8068 0.2951
vt 0.7799 0.3131
vt 0.7499 0.3255
vt 0.7180 0.3319
vt 0.6538 0.3255
vt 0.6238 0.3131
vt 0.5968 0.2951
vt 0.5739 0.2721
vt 0.5558 0.2452
vt 0.5434 0.2152
vt 0.5371 0.1834
vt 0.5434 0.1191
vt 0.5558 0.0891
vt 0.5739 0.0621
vt 0.5968 0.0392
vt 0.6238 0.0211
vt 0.6538 0.0087
vt 0.6856 0.0024
vt 0.3155 0.3330
vt 0.2830 0.3330
vt 0.2511 0.3266
vt 0.2211 0.3142
vt 0.1940 0.2961
vt 0.1405 0.2161
vt 0.1710 0.2731
vt 0.1530 0.2461
vt 0.1342 0.1842
vt 0.1530 0.0898
vt 0.1342 0.1517
vt 0.1405 0.1198
vt 0.1710 0.0627
vt 0.2511 0.0093
vt 0.1940 0.0398
vt 0.2211 0.0217
vt 0.2830 0.0029
vt 0.3155 0.0029
vt 0.3474 0.0093
vt 0.4044 0.0398
vt 0.4274 0.0627
vt 0.4455 0.0898
vt 0.4642 0.1517
vt 0.4642 0.1842
vt 0.4579 0.2161
vt 0.4455 0.2461
vt 0.4274 0.2731
vt 0.4044 0.2961
vt 0.3774 0.3142
vn 0.0980 0.0000 -0.9952
vn 0.2903 0.0000 -0.9569
vn 0.4714 0.0000 -0.8819
vn 0.6344 0.0000 -0.7730
vn 0.7730 0.0000 -0.6344
vn 0.8819 0.0000 -0.4714
vn 0.9569 0.0000 -0.2903
vn 0.9952 0.0000 -0.0980
vn 0.9952 0.0000 0.0980
vn 0.9569 0.0000 0.2903
vn 0.8819 0.0000 0.4714
vn 0.7730 0.0000 0.6344
vn 0.6344 0.0000 0.7730
vn 0.4714 0.0000 0.8819
vn 0.2903 0.0000 0.9569
vn 0.0980 0.0000 0.9952
vn -0.0980 0.0000 0.9952
vn -0.2903 0.0000 0.9569
vn -0.4714 0.0000 0.8819
vn -0.6344 0.0000 0.7730
vn -0.7730 0.0000 0.6344
vn -0.8819 0.0000 0.4714
vn -0.9569 0.0000 0.2903
vn -0.9952 0.0000 0.0980
vn -0.9952 0.0000 -0.0980
vn -0.9569 0.0000 -0.2903
vn -0.8819 0.0000 -0.4714
vn -0.7730 0.0000 -0.6344
vn -0.6344 0.0000 -0.7730
vn -0.4714 0.0000 -0.8819
vn 0.0000 1.0000 0.0000
vn -0.2903 0.0000 -0.9569
vn -0.0980 0.0000 -0.9952
vn 0.0000 -1.0000 0.0000
usemtl Material.001
s off
f 18/49/13 19/50/13 17/51/13
f 20/52/14 21/53/14 19/50/14
f 22/54/15 23/55/15 21/53/15
f 24/56/16 25/57/16 23/55/16
f 26/58/17 27/59/17 25/57/17
f 28/60/18 29/61/18 27/59/18
f 30/62/19 31/63/19 29/61/19
f 32/64/20 33/65/20 31/63/20
f 34/66/21 35/67/21 33/65/21
f 36/68/22 37/69/22 35/70/22
f 38/71/23 39/72/23 37/69/23
f 40/73/24 41/74/24 39/72/24
f 42/75/25 43/76/25 41/74/25
f 44/77/26 45/78/26 43/76/26
f 46/79/27 47/80/27 45/78/27
f 48/81/28 49/82/28 47/80/28
f 50/83/29 51/84/29 49/82/29
f 52/85/30 53/86/30 51/84/30
f 54/87/31 55/88/31 53/86/31
f 56/89/32 57/90/32 55/88/32
f 58/91/33 59/92/33 57/90/33
f 60/93/34 61/94/34 59/92/34
f 62/95/35 63/96/35 61/94/35
f 64/97/36 65/98/36 63/96/36
f 66/99/37 67/100/37 65/98/37
f 68/101/38 69/102/38 67/100/38
f 70/103/39 71/104/39 69/102/39
f 72/105/40 73/106/40 71/104/40
f 74/107/41 75/108/41 73/106/41
f 76/109/42 77/110/42 75/108/42
f 54/111/43 38/112/43 70/113/43
f 78/114/44 79/115/44 77/110/44
f 80/116/45 17/51/45 79/115/45
f 55/117/46 63/118/46 79/119/46
f 18/49/13 20/52/13 19/50/13
f 20/52/14 22/54/14 21/53/14
f 22/54/15 24/56/15 23/55/15
f 24/56/16 26/58/16 25/57/16
f 26/58/17 28/60/17 27/59/17
f 28/60/18 30/62/18 29/61/18
f 30/62/19 32/64/19 31/63/19
f 32/64/20 34/66/20 33/65/20
f 34/66/21 36/120/21 35/67/21
f 36/68/22 38/71/22 37/69/22
f 38/71/23 40/73/23 39/72/23
f 40/73/24 42/75/24 41/74/24
f 42/75/25 44/77/25 43/76/25
f 44/77/26 46/79/26 45/78/26
f 46/79/27 48/81/27 47/80/27
f 48/81/28 50/83/28 49/82/28
f 50/83/29 52/85/29 51/84/29
f 52/85/30 54/87/30 53/86/30
f 54/87/31 56/89/31 55/88/31
f 56/89/32 58/91/32 57/90/32
f 58/91/33 60/93/33 59/92/33
f 60/93/34 62/95/34 61/94/34
f 62/95/35 64/97/35 63/96/35
f 64/97/36 66/99/36 65/98/36
f 66/99/37 68/101/37 67/100/37
f 68/101/38 70/103/38 69/102/38
f 70/103/39 72/105/39 71/104/39
f 72/105/40 74/107/40 73/106/40
f 74/107/41 76/109/41 75/108/41
f 76/109/42 78/114/42 77/110/42
f 22/121/43 20/122/43 18/123/43
f 18/123/43 80/124/43 78/125/43
f 78/125/43 76/126/43 74/127/43
f 74/127/43 72/128/43 70/113/43
f 70/113/43 68/129/43 66/130/43
f 66/130/43 64/131/43 70/113/43
f 62/132/43 60/133/43 54/111/43
f 58/134/43 56/135/43 54/111/43
f 54/111/43 52/136/43 50/137/43
f 50/137/43 48/138/43 46/139/43
f 46/139/43 44/140/43 42/141/43
f 42/141/43 40/142/43 38/112/43
f 38/112/43 36/143/43 34/144/43
f 34/144/43 32/145/43 30/146/43
f 30/146/43 28/147/43 26/148/43
f 26/148/43 24/149/43 22/121/43
f 22/121/43 18/123/43 78/125/43
f 78/125/43 74/127/43 70/113/43
f 70/113/43 64/131/43 62/132/43
f 60/133/43 58/134/43 54/111/43
f 54/111/43 50/137/43 46/139/43
f 46/139/43 42/141/43 54/111/43
f 38/112/43 34/144/43 30/146/43
f 30/146/43 26/148/43 38/112/43
f 22/121/43 78/125/43 70/113/43
f 70/113/43 62/132/43 54/111/43
f 54/111/43 42/141/43 38/112/43
f 38/112/43 26/148/43 22/121/43
f 22/121/43 70/113/43 38/112/43
f 78/114/44 80/116/44 79/115/44
f 80/116/45 18/49/45 17/51/45
f 79/119/46 17/150/46 19/151/46
f 19/151/46 21/152/46 79/119/46
f 23/153/46 25/154/46 31/155/46
f 27/156/46 29/157/46 31/155/46
f 31/155/46 33/158/46 39/159/46
f 35/160/46 37/161/46 39/159/46
f 39/159/46 41/162/46 47/163/46
f 43/164/46 45/165/46 47/163/46
f 47/163/46 49/166/46 55/117/46
f 51/167/46 53/168/46 55/117/46
f 55/117/46 57/169/46 59/170/46
f 59/170/46 61/171/46 63/118/46
f 63/118/46 65/172/46 67/173/46
f 67/173/46 69/174/46 63/118/46
f 71/175/46 73/176/46 75/177/46
f 75/177/46 77/178/46 79/119/46
f 79/119/46 21/152/46 23/153/46
f 25/154/46 27/156/46 31/155/46
f 33/158/46 35/160/46 39/159/46
f 41/162/46 43/164/46 47/163/46
f 49/166/46 51/167/46 55/117/46
f 55/117/46 59/170/46 63/118/46
f 63/118/46 69/174/46 71/175/46
f 71/175/46 75/177/46 63/118/46
f 79/119/46 23/153/46 31/155/46
f 31/155/46 39/159/46 79/119/46
f 47/163/46 55/117/46 79/119/46
f 63/118/46 75/177/46 79/119/46
f 79/119/46 39/159/46 47/163/46
o Cube.002
v 1.106094 0.391639 -2.906669
v 0.422054 0.391639 -1.027284
v -1.457332 0.391639 -1.711325
v -0.773291 0.391639 -3.590710
v 1.106094 2.391639 -2.906669
v 0.422053 2.391639 -1.027284
v -1.457332 2.391639 -1.711325
v -0.773291 2.391639 -3.590710
vt 0.9923 0.9936
vt 0.0066 0.0079
vt 0.9923 0.0079
vt 0.0067 0.9921
vt 0.9924 0.0064
vt 0.9924 0.9921
vt 0.9931 0.9936
vt 0.0074 0.0078
vt 0.9931 0.0078
vt 0.9932 0.9929
vt 0.0075 0.0072
vt 0.9932 0.0072
vt 0.0076 0.9931
vt 0.9933 0.0074
vt 0.9933 0.9931
vt 0.9929 0.9929
vt 0.0072 0.0072
vt 0.9929 0.0072
vt 0.0066 0.9936
vt 0.0067 0.0064
vt 0.0074 0.9936
vt 0.0075 0.9929
vt 0.0076 0.0074
vt 0.0072 0.9929
vn 0.0000 -1.0000 -0.0000
vn 0.0000 1.0000 -0.0000
vn 0.9397 -0.0000 0.3420
vn -0.3420 -0.0000 0.9397
vn -0.9397 -0.0000 -0.3420
vn 0.3420 0.0000 -0.9397
usemtl Material
s off
f 81/179/47 83/180/47 84/181/47
f 88/182/48 86/183/48 85/184/48
f 85/185/49 82/186/49 81/187/49
f 86/188/50 83/189/50 82/190/50
f 83/191/51 88/192/51 84/193/51
f 81/194/52 88/195/52 85/196/52
f 81/179/47 82/197/47 83/180/47
f 88/182/48 87/198/48 86/183/48
f 85/185/49 86/199/49 82/186/49
f 86/188/50 87/200/50 83/189/50
f 83/191/51 87/201/51 88/192/51
f 81/194/52 84/202/52 88/195/52
